# xmcd
#
# Track frame offsets:
#	150
#	20910
#	42235
#	65495
#	84290
#	105452
#	135715
#	163252
#	178072
#	198472
#	214405
#	234755
#	267970
#	305762
#	323322
#
# Disc length: 4594 seconds
#
# Revision: 4
# Processed by: cddbd v1.5.2PL0 Copyright (c) Steve Scherf et al.
# Submitted via: EZCDAudioConverter 1.3.4.1
#
DISCID=d111f00f
DTITLE=Marianne Faithfull - A Perfect Stranger 1/2
DYEAR=1998
DGENRE=
TTITLE0=Broken English
TTITLE1=Witches' Song
TTITLE2=Guilt
TTITLE3=The Ballad Of Lucy Jordan
TTITLE4=Working Class Hero
TTITLE5=Why D'Ya Do It
TTITLE6=Sister Morphine
TTITLE7=Sweetheart
TTITLE8=Intrigue
TTITLE9=For Beauty's Sake
TTITLE10=So Sad
TTITLE11=Truth Bitter Truth
TTITLE12=The Blue Millionaire [12'']
TTITLE13=Falling From Grace
TTITLE14=Running For Our Lives
EXTD=
EXTT0=
EXTT1=
EXTT2=
EXTT3=
EXTT4=
EXTT5=
EXTT6=
EXTT7=
EXTT8=
EXTT9=
EXTT10=
EXTT11=
EXTT12=
EXTT13=
EXTT14=
PLAYORDER=
